<?xml version="1.0" standalone="no"?>
<!DOCTYPE svg PUBLIC "-//W3C//DTD SVG 20010904//EN"
 "http://www.w3.org/TR/2001/REC-SVG-20010904/DTD/svg10.dtd">
<svg version="1.0" xmlns="http://www.w3.org/2000/svg"
 width="1983.000000pt" height="793.000000pt" viewBox="0 0 1983.000000 793.000000"
 preserveAspectRatio="xMidYMid meet">

<g transform="translate(0.000000,793.000000) scale(0.100000,-0.100000)"
fill="#000000" stroke="none">
<path d="M0 3965 l0 -3965 9915 0 9915 0 0 3965 0 3965 -9915 0 -9915 0 0
-3965z m1720 2430 l0 -45 55 0 55 0 0 45 c0 33 4 45 15 45 12 0 15 -19 15
-110 0 -91 -3 -110 -15 -110 -11 0 -15 12 -15 50 l0 50 -54 0 -55 0 -3 -47
c-2 -26 -9 -48 -15 -51 -10 -3 -13 23 -13 107 0 92 3 111 15 111 11 0 15 -12
15 -45z m430 35 c0 -5 -26 -10 -57 -12 -57 -3 -58 -3 -58 -33 0 -29 2 -30 48
-33 33 -2 47 -7 47 -18 0 -10 -12 -14 -44 -14 -43 0 -44 -1 -48 -35 l-4 -34
55 -3 c32 -2 56 -8 59 -15 3 -10 -15 -13 -67 -13 l-71 0 0 110 0 110 70 0 c39
0 70 -4 70 -10z m160 -84 l0 -95 52 -3 c30 -2 53 -8 56 -15 3 -10 -15 -13 -67
-13 l-71 0 0 110 c0 91 3 110 15 110 12 0 15 -17 15 -94z m260 -1 l0 -95 50 0
c38 0 50 -4 50 -15 0 -12 -14 -15 -65 -15 l-65 0 0 110 c0 91 3 110 15 110 12
0 15 -17 15 -95z m345 89 c25 -10 45 -58 45 -109 0 -61 -40 -105 -95 -105 -27
0 -44 8 -66 29 -25 25 -29 37 -29 84 0 45 4 59 26 81 27 26 79 35 119 20z
m565 -104 c0 -67 -4 -110 -10 -110 -6 0 -10 43 -10 110 0 67 4 110 10 110 6 0
10 -43 10 -110z m178 83 c-4 -37 -23 -39 -25 -3 -2 21 2 30 13 30 11 0 14 -8
12 -27z m213 -58 c18 -47 36 -82 39 -78 4 5 20 43 35 86 21 59 32 77 46 77 17
0 19 -9 19 -110 0 -67 -4 -110 -10 -110 -6 0 -10 36 -10 87 0 52 -4 83 -9 78
-5 -6 -21 -45 -36 -88 -16 -43 -33 -76 -39 -74 -6 2 -25 39 -43 83 l-32 79 -1
-82 c0 -67 -3 -83 -15 -83 -12 0 -15 19 -15 110 0 102 1 110 19 110 16 0 27
-19 52 -85z m-746 -115 c7 -21 -10 -60 -25 -60 -14 0 -13 17 1 26 8 5 7 9 -1
14 -14 9 -7 40 9 40 5 0 12 -9 16 -20z m1312 -530 c61 -27 118 -81 150 -145
20 -39 27 -72 34 -160 4 -61 7 -124 5 -140 l-3 -29 -104 0 -104 -1 -5 110 c-3
61 -9 118 -14 127 -8 18 -65 48 -90 48 -9 0 -32 -7 -52 -15 -63 -26 -64 -34
-64 -493 0 -225 3 -423 6 -441 14 -66 85 -103 149 -77 56 24 65 55 65 221 l0
145 -55 0 -55 0 0 105 0 105 165 0 165 0 0 -163 c0 -90 -3 -266 -7 -390 l-6
-227 -46 0 c-43 0 -48 3 -58 30 l-11 31 -47 -30 c-65 -41 -142 -56 -221 -43
-118 20 -195 77 -235 178 l-24 59 0 490 0 490 28 60 c44 93 104 146 197 172
62 18 177 10 237 -17z m908 -5 c90 -44 145 -123 165 -236 7 -42 10 -212 8
-504 -4 -500 -5 -506 -85 -595 -62 -69 -125 -94 -238 -94 -72 0 -100 4 -141
22 -63 29 -126 91 -156 157 -23 50 -23 54 -26 528 -2 410 -1 486 13 532 28 98
114 184 212 211 72 21 183 11 248 -21z m-3164 -9 c94 -35 167 -121 188 -224 7
-34 11 -207 11 -476 0 -401 -1 -428 -21 -491 -25 -83 -85 -152 -162 -186 -48
-22 -67 -24 -269 -27 l-218 -4 0 717 0 717 213 -4 c169 -4 221 -8 258 -22z
m689 -691 l0 -715 -115 0 -115 0 0 708 c0 390 3 712 7 715 3 4 55 7 115 7
l108 0 0 -715z m868 608 l-3 -108 -182 -3 -183 -2 0 -190 0 -190 145 0 145 0
0 -105 0 -105 -145 0 -145 0 0 -205 0 -205 185 0 185 0 0 -105 0 -105 -295 0
-295 0 0 715 0 715 295 0 296 0 -3 -107z m-1897 -1754 c15 -15 18 -24 10 -32
-8 -8 -17 -5 -31 11 -34 36 -90 24 -90 -19 0 -16 24 -29 80 -45 14 -3 31 -11
38 -16 19 -16 15 -73 -8 -93 -41 -37 -150 -11 -150 35 0 26 27 26 35 0 11 -35
78 -40 99 -7 16 26 -4 50 -55 64 -44 13 -79 43 -79 69 0 51 109 75 151 33z
m370 11 c56 -31 66 -153 15 -197 -20 -17 -39 -23 -76 -23 -42 0 -52 4 -75 32
-24 29 -27 38 -23 92 4 49 9 63 32 83 29 25 92 31 127 13z m389 0 c0 -5 -25
-10 -55 -10 l-55 0 0 -40 0 -40 50 0 c38 0 50 -4 50 -15 0 -11 -12 -15 -50
-15 l-50 0 0 -50 c0 -38 -4 -50 -15 -50 -12 0 -15 19 -15 115 l0 115 70 0 c40
0 70 -4 70 -10z m350 1 c0 -6 -17 -11 -37 -13 l-38 -3 0 -102 c0 -93 -2 -103
-18 -103 -16 0 -18 10 -16 103 l2 102 -37 3 c-72 6 -34 22 54 22 50 0 90 -4
90 -9z m210 -81 c12 -50 25 -88 29 -85 3 4 15 43 27 88 16 68 23 82 39 82 17
0 23 -14 40 -87 11 -49 23 -88 26 -88 3 0 11 24 18 53 23 104 32 127 48 127
10 0 13 -5 8 -17 -3 -10 -15 -55 -26 -101 -26 -107 -28 -112 -49 -112 -12 0
-20 10 -24 30 -11 59 -38 140 -45 140 -4 0 -16 -37 -27 -82 -16 -68 -23 -84
-40 -86 -17 -2 -23 9 -43 92 -12 53 -25 105 -28 116 -4 13 0 20 10 20 10 0 21
-26 37 -90z m539 4 c48 -127 53 -144 35 -144 -8 0 -20 14 -25 30 -10 28 -14
30 -60 30 -47 0 -51 -2 -60 -30 -6 -16 -17 -30 -25 -30 -18 0 -20 -8 21 106
20 55 38 105 40 112 2 6 13 12 23 12 14 0 26 -21 51 -86z m383 69 c24 -21 23
-75 -1 -97 -18 -16 -18 -18 0 -54 22 -43 24 -62 5 -62 -7 0 -23 23 -34 50 -19
45 -24 50 -51 50 -30 0 -31 -1 -31 -50 0 -38 -4 -50 -15 -50 -12 0 -15 19 -15
115 l0 115 62 0 c43 0 67 -5 80 -17z m358 7 c0 -5 -25 -10 -55 -10 l-55 0 0
-40 0 -40 50 0 c64 0 66 -18 3 -22 l-48 -3 -3 -42 -3 -43 60 0 c34 0 61 -4 61
-10 0 -6 -32 -10 -75 -10 l-75 0 0 115 0 115 70 0 c40 0 70 -4 70 -10z m580 0
c0 -6 -27 -10 -60 -10 l-60 0 0 -40 0 -40 55 0 c70 0 72 -18 3 -22 l-53 -3 -3
-42 -3 -43 60 0 c34 0 61 -4 61 -10 0 -6 -32 -10 -75 -10 l-75 0 0 115 0 115
75 0 c43 0 75 -4 75 -10z m292 -82 l53 -93 3 93 c2 73 6 92 17 92 12 0 15 -21
15 -115 0 -106 -2 -115 -19 -115 -13 0 -35 28 -72 93 l-54 92 -3 -92 c-2 -74
-6 -93 -17 -93 -12 0 -15 21 -15 115 0 107 1 115 19 115 14 0 35 -26 73 -92z
m452 71 c26 -21 34 -39 16 -39 -5 0 -19 9 -30 20 -26 26 -68 25 -97 -2 -18
-17 -23 -32 -23 -72 0 -84 63 -125 117 -74 34 31 30 58 -7 58 -16 0 -30 5 -30
10 0 6 19 10 43 10 l42 0 2 -60 c2 -47 -1 -60 -12 -60 -8 0 -15 5 -15 10 0 7
-6 7 -19 0 -22 -11 -80 -13 -106 -4 -26 10 -45 59 -45 114 0 44 5 56 29 81 37
36 94 40 135 8z m266 -94 c0 -96 -3 -115 -15 -115 -12 0 -15 19 -15 115 0 96
3 115 15 115 12 0 15 -19 15 -115z m272 82 c9 -19 33 -60 55 -93 l38 -59 3 93
c3 103 21 127 23 30 1 -35 2 -87 3 -116 1 -46 -1 -52 -19 -52 -15 0 -33 23
-70 90 -28 49 -53 90 -57 90 -5 0 -8 -40 -8 -90 0 -73 -3 -90 -15 -90 -12 0
-15 19 -15 115 0 114 0 115 23 115 17 0 28 -10 39 -33z m478 23 c0 -5 -26 -10
-57 -12 l-58 -3 -3 -37 -3 -38 55 0 c71 0 74 -18 4 -22 l-53 -3 0 -40 0 -40
58 -3 c84 -4 70 -22 -18 -22 l-75 0 0 115 0 115 75 0 c41 0 75 -4 75 -10z
m340 0 c0 -5 -25 -10 -55 -10 l-55 0 0 -40 0 -40 50 0 c28 0 50 -4 50 -10 0
-5 -22 -10 -50 -10 l-50 0 0 -45 0 -45 60 0 c33 0 60 -4 60 -10 0 -6 -32 -10
-75 -10 l-75 0 0 115 0 115 70 0 c40 0 70 -4 70 -10z m350 -10 c25 -25 26 -64
1 -89 -19 -19 -19 -20 0 -70 26 -68 1 -71 -32 -3 -21 40 -28 47 -54 47 -29 0
-30 -2 -33 -48 -2 -33 -7 -47 -18 -47 -11 0 -14 21 -14 115 l0 115 65 0 c52 0
69 -4 85 -20z m250 -95 c0 -103 -2 -115 -17 -115 -16 0 -18 11 -15 115 3 92 6
115 18 115 11 0 14 -22 14 -115z m301 24 l54 -90 3 90 c2 72 6 91 17 91 12 0
15 -21 15 -115 0 -150 -13 -153 -90 -25 l-55 90 -3 -90 c-2 -71 -6 -90 -17
-90 -12 0 -15 21 -15 115 0 106 1 115 19 115 13 0 35 -27 72 -91z m459 71 c22
-22 26 -40 10 -40 -5 0 -19 9 -30 20 -26 26 -68 25 -97 -2 -32 -30 -33 -111
-1 -145 27 -29 71 -30 98 -3 29 29 26 60 -5 60 -14 0 -25 5 -25 10 0 6 18 10
40 10 l40 0 0 -60 c0 -55 -12 -79 -23 -47 -4 10 -7 10 -18 0 -17 -16 -99 -16
-120 0 -27 21 -39 54 -39 107 0 44 5 56 29 81 24 24 38 29 75 29 33 0 52 -6
66 -20z m610 -2 c11 -12 20 -25 20 -30 0 -15 -26 -8 -43 12 -20 24 -54 26 -78
4 -25 -22 -9 -50 33 -59 63 -14 88 -33 88 -67 0 -48 -24 -68 -82 -68 -50 0
-88 24 -88 55 0 23 16 18 34 -11 14 -20 24 -25 53 -22 74 6 69 63 -7 85 -54
16 -70 29 -70 61 0 40 27 62 76 62 32 0 49 -6 64 -22z m370 12 c0 -5 -16 -10
-35 -10 l-35 0 0 -105 c0 -87 -3 -105 -15 -105 -12 0 -15 18 -15 105 l0 105
-35 0 c-19 0 -35 5 -35 10 0 6 35 10 85 10 50 0 85 -4 85 -10z m220 -77 c0
-96 13 -123 58 -123 50 0 62 24 62 122 0 72 3 88 15 88 12 0 15 -17 15 -92 0
-80 -3 -95 -22 -115 -32 -35 -109 -33 -137 3 -18 23 -21 41 -21 115 0 72 3 89
15 89 12 0 15 -16 15 -87z m499 73 c49 -26 67 -106 36 -167 -19 -37 -50 -49
-121 -49 l-54 0 0 115 0 115 55 0 c31 0 68 -6 84 -14z m391 4 c0 -5 -25 -10
-55 -10 l-55 0 0 -40 0 -40 50 0 c28 0 50 -4 50 -10 0 -5 -22 -10 -50 -10
l-50 0 0 -45 0 -45 60 0 c33 0 60 -4 60 -10 0 -6 -32 -10 -75 -10 l-75 0 0
115 0 115 70 0 c40 0 70 -4 70 -10z m295 -83 c29 -48 55 -84 58 -80 3 4 4 45
3 90 -1 61 2 83 12 83 9 0 12 -30 12 -115 0 -149 -12 -152 -90 -22 l-55 92 -3
-92 c-2 -74 -6 -93 -17 -93 -12 0 -15 21 -15 116 0 111 1 115 21 112 14 -2 38
-32 74 -91z m445 83 c0 -5 -16 -10 -35 -10 l-35 0 0 -105 c0 -87 -3 -105 -15
-105 -12 0 -15 18 -15 105 l0 105 -35 0 c-19 0 -35 5 -35 10 0 6 35 10 85 10
50 0 85 -4 85 -10z m-8441 -1122 c-26 -22 -58 -23 -87 -2 -19 13 -22 24 -22
85 0 39 4 69 10 69 6 0 10 -25 10 -56 0 -66 13 -94 43 -94 36 0 47 19 47 85 0
88 14 91 18 3 3 -65 1 -75 -19 -90z m100 79 l-2 -72 41 -3 c58 -4 43 -22 -19
-22 l-49 0 0 83 c0 46 3 87 6 90 17 17 25 -11 23 -76z m405 73 c14 -5 26 -16
26 -25 0 -14 -3 -14 -25 1 -14 9 -32 13 -45 9 -23 -7 -23 -34 0 -45 61 -28 75
-38 78 -54 5 -25 -26 -56 -57 -56 -37 0 -76 29 -61 44 8 8 14 7 21 -6 12 -22
52 -23 69 -3 15 19 11 24 -43 50 -50 24 -60 55 -25 79 26 19 29 19 62 6z m484
-6 c12 -8 22 -22 22 -30 0 -12 -5 -11 -27 5 -60 48 -124 -31 -77 -97 18 -26
50 -28 76 -5 10 9 21 13 26 9 11 -12 -37 -46 -65 -46 -38 0 -73 42 -73 87 1
41 13 62 45 81 27 16 47 15 73 -4z m92 -32 l0 -36 45 44 c50 49 59 47 20 -4
-14 -18 -25 -37 -25 -42 0 -5 14 -26 31 -47 45 -54 25 -61 -22 -7 -39 45 -44
44 -51 -8 -2 -12 -7 -24 -13 -25 -11 -2 -20 136 -11 160 10 25 26 3 26 -35z
m5848 32 c12 -8 22 -22 22 -30 0 -19 -6 -18 -30 6 -11 11 -27 20 -35 20 -24 0
-55 -38 -55 -68 0 -60 52 -92 92 -55 10 9 21 13 26 9 11 -12 -37 -46 -65 -46
-38 0 -73 42 -73 88 0 40 12 63 45 80 28 16 47 15 73 -4z m325 -16 c10 -12 17
-37 17 -63 0 -35 -5 -48 -26 -64 -35 -28 -69 -26 -99 4 -28 27 -34 90 -12 117
33 42 87 45 120 6z m4421 11 c14 -11 23 -25 20 -31 -4 -5 -14 -1 -25 11 -24
25 -37 26 -67 5 -27 -19 -30 -78 -5 -106 20 -22 56 -23 73 -3 7 8 17 15 23 15
6 0 0 -11 -13 -25 -29 -30 -59 -32 -94 -4 -22 17 -26 29 -26 68 0 48 14 71 50
84 26 10 37 7 64 -14z m166 11 c0 -5 -18 -10 -40 -10 -38 0 -40 -2 -40 -30 0
-28 3 -30 35 -30 19 0 35 -4 35 -10 0 -5 -16 -10 -35 -10 -32 0 -35 -2 -35
-30 0 -28 2 -30 40 -30 22 0 40 -4 40 -10 0 -5 -22 -10 -50 -10 l-50 0 0 84 0
85 48 4 c26 2 48 4 50 5 1 1 2 -2 2 -8z m-11990 -10 c0 -5 -18 -10 -40 -10
-36 0 -40 -2 -40 -25 0 -22 4 -25 34 -25 19 0 38 -4 41 -10 4 -6 -10 -10 -34
-10 l-41 0 0 -40 c0 -22 -4 -40 -10 -40 -6 0 -10 35 -10 85 l0 85 50 0 c28 0
50 -4 50 -10z m380 -65 l0 -75 40 0 c22 0 40 -4 40 -10 0 -5 -22 -10 -50 -10
l-50 0 0 85 c0 50 4 85 10 85 6 0 10 -32 10 -75z m460 65 c0 -5 -11 -10 -25
-10 -24 0 -25 -2 -25 -76 0 -53 -3 -75 -12 -72 -7 3 -11 28 -9 76 2 59 0 72
-13 73 -29 3 -34 4 -42 12 -4 4 23 7 59 7 38 0 67 -4 67 -10z m125 -71 c26
-77 28 -119 4 -65 -17 37 -74 38 -91 1 -6 -14 -15 -25 -20 -25 -11 0 -11 2 22
98 33 99 50 97 85 -9z m2794 9 c13 -40 26 -79 28 -85 9 -24 -14 -13 -25 12
-17 37 -74 36 -91 -1 -25 -56 -22 -11 4 66 37 104 53 106 84 8z m89 -8 c-4
-107 -22 -108 -26 -2 -2 69 0 82 13 82 13 0 15 -13 13 -80z m3322 5 l0 -75 42
0 c30 0 39 -3 31 -11 -5 -5 -30 -9 -54 -7 l-44 3 -3 83 c-2 68 0 82 13 82 12
0 15 -14 15 -75z m320 12 c0 -65 11 -87 41 -87 34 0 49 28 49 91 0 33 4 59 10
59 17 0 12 -126 -6 -144 -24 -25 -61 -30 -88 -12 -21 13 -25 24 -28 86 -2 51
0 70 10 70 8 0 12 -19 12 -63z m270 43 c13 -13 20 -33 20 -60 0 -56 -34 -90
-90 -90 l-40 0 0 85 0 85 45 0 c32 0 51 -6 65 -20z m2990 11 c0 -5 -18 -8 -40
-6 -39 4 -40 3 -40 -25 0 -27 3 -30 34 -30 19 0 38 -4 41 -10 4 -6 -10 -10
-34 -10 l-41 0 0 -40 c0 -22 -4 -40 -10 -40 -6 0 -10 35 -10 85 l0 85 50 0
c28 0 50 -4 50 -9z m138 -3 c17 -17 15 -65 -3 -72 -14 -5 -14 -9 0 -36 24 -46
11 -61 -15 -17 -29 50 -60 51 -60 2 0 -19 -4 -35 -10 -35 -6 0 -10 35 -10 85
l0 85 43 0 c24 0 48 -5 55 -12z m158 5 c-3 -4 -21 -7 -39 -7 -27 -1 -32 -5
-35 -28 -3 -26 -1 -28 32 -28 20 0 36 -4 36 -10 0 -5 -16 -10 -35 -10 -32 0
-35 -2 -35 -30 0 -28 2 -30 40 -30 22 0 40 -5 40 -11 0 -6 -21 -9 -52 -7 l-53
3 -3 83 -3 82 57 0 c32 0 54 -3 50 -7z m109 -2 c-34 -5 -40 -10 -43 -33 -3
-27 -1 -28 38 -28 25 0 39 -4 35 -10 -3 -5 -22 -10 -41 -10 -31 0 -34 -2 -34
-30 0 -28 2 -30 40 -30 22 0 40 -4 40 -10 0 -5 -22 -10 -50 -10 l-50 0 0 85 0
85 53 -1 c51 -2 51 -2 12 -8z m95 -66 l0 -75 40 0 c22 0 40 -4 40 -10 0 -5
-22 -10 -50 -10 l-50 0 0 85 c0 50 4 85 10 85 6 0 10 -32 10 -75z m221 -9 c33
-92 32 -86 19 -86 -6 0 -15 11 -20 25 -8 20 -16 25 -45 25 -29 0 -37 -5 -45
-25 -5 -14 -14 -25 -20 -25 -13 0 -14 -3 15 76 14 38 28 75 30 82 12 33 39 3
66 -72z m129 19 l35 -60 3 63 c2 40 7 62 15 62 9 0 11 -24 9 -85 -2 -47 -7
-85 -12 -85 -4 0 -27 30 -51 67 l-44 67 -3 -67 c-4 -97 -22 -83 -22 19 0 75 2
85 17 82 9 -2 33 -30 53 -63z m-11349 -335 c13 -38 26 -70 29 -70 4 0 15 27
25 60 17 57 46 101 44 69 -1 -34 -57 -164 -70 -164 -8 0 -25 29 -41 75 -29 82
-33 100 -19 100 6 0 20 -31 32 -70z m4120 31 c16 -20 20 -35 16 -66 -10 -71
-71 -97 -124 -51 -22 20 -28 32 -27 65 3 85 85 116 135 52z m2808 -31 c19 -33
38 -60 43 -60 4 0 8 27 8 60 0 35 4 60 10 60 15 0 8 -162 -7 -167 -6 -2 -29
25 -50 61 -21 36 -41 66 -45 66 -5 0 -8 -30 -8 -66 0 -41 -4 -63 -10 -59 -11
7 -14 157 -4 168 12 12 30 -6 63 -63z m471 -4 c0 -67 10 -86 47 -86 32 0 46
34 41 96 -4 41 -1 54 9 54 9 0 13 -17 13 -65 0 -53 -4 -68 -22 -85 -26 -24
-56 -26 -86 -4 -19 13 -22 24 -22 90 0 48 4 73 10 69 6 -3 10 -34 10 -69z
m257 46 c18 -22 7 -28 -15 -9 -22 20 -43 22 -60 5 -20 -20 -14 -28 32 -48 51
-22 60 -33 52 -65 -10 -40 -98 -47 -113 -9 -8 23 5 30 20 10 9 -12 23 -17 42
-14 41 4 41 38 0 56 -54 24 -60 29 -60 53 0 45 72 60 102 21z m224 -60 c12
-37 24 -73 27 -79 8 -24 -15 -13 -26 12 -9 19 -19 25 -45 25 -26 0 -36 -6 -45
-25 -11 -25 -39 -37 -29 -12 15 34 55 134 61 151 10 30 32 3 57 -72z m150 78
c10 -6 19 -17 19 -25 0 -12 -5 -11 -29 3 -24 14 -31 14 -45 3 -25 -21 -20 -29
32 -53 52 -25 63 -49 36 -79 -28 -32 -104 -19 -104 18 0 15 2 15 18 0 23 -21
56 -22 72 -2 15 18 -2 45 -29 45 -26 0 -61 29 -61 50 0 20 35 50 58 50 7 0 22
-5 33 -10z m2720 -65 c12 -36 25 -65 28 -65 4 0 15 29 25 65 11 39 24 65 32
65 10 0 6 -21 -16 -82 -17 -45 -30 -83 -30 -85 0 -2 -7 -3 -15 -3 -8 0 -18 12
-22 27 -3 16 -16 53 -29 85 -20 53 -22 74 -4 63 4 -3 18 -34 31 -70z m299 -11
l0 -74 40 0 c22 0 40 -5 40 -11 0 -6 -20 -9 -52 -7 l-52 3 -4 73 c-4 77 1 107
18 97 5 -3 10 -40 10 -81z m233 54 c10 -12 17 -37 17 -63 0 -35 -5 -48 -26
-64 -35 -28 -69 -26 -99 4 -28 27 -34 90 -12 117 33 42 87 45 120 6z m-11517
1 c12 -13 19 -35 19 -61 0 -53 -38 -88 -96 -88 l-39 0 0 85 0 85 48 0 c37 0
54 -5 68 -21z m129 12 c-34 -5 -40 -10 -43 -33 -3 -27 -1 -28 38 -28 25 0 39
-4 35 -10 -3 -5 -22 -10 -41 -10 -31 0 -34 -2 -34 -30 0 -28 2 -30 40 -30 22
0 40 -4 40 -10 0 -5 -22 -10 -50 -10 l-50 0 0 85 0 85 53 -1 c51 -2 51 -2 12
-8z m340 -1 c-3 -5 -23 -10 -44 -10 -35 0 -38 -2 -33 -25 4 -21 10 -25 38 -25
19 0 34 -4 34 -10 0 -5 -15 -10 -34 -10 -28 0 -34 -4 -38 -25 -7 -32 -2 -35
44 -35 21 0 38 -5 38 -11 0 -6 -21 -9 -52 -7 l-53 3 -3 83 -3 82 56 0 c35 0
54 -4 50 -10z m65 -65 l0 -75 40 0 c22 0 40 -4 40 -10 0 -5 -22 -10 -50 -10
l-50 0 0 85 c0 50 4 85 10 85 6 0 10 -32 10 -75z m240 55 c29 -29 27 -94 -5
-125 -30 -31 -66 -32 -101 -2 -21 18 -27 32 -27 65 0 56 24 82 75 82 25 0 45
-7 58 -20z m170 1 c23 -43 6 -71 -46 -80 -35 -6 -39 -10 -39 -36 -1 -16 -6
-30 -13 -33 -9 -3 -12 19 -12 82 l0 86 50 0 c38 0 52 -4 60 -19z m150 8 c0 -7
-15 -10 -40 -7 -38 3 -40 2 -40 -24 0 -25 3 -28 35 -28 19 0 35 -4 35 -10 0
-5 -16 -10 -35 -10 -32 0 -35 -2 -35 -30 0 -28 2 -30 40 -30 22 0 40 -4 40
-10 0 -5 -22 -10 -50 -10 l-50 0 0 85 0 85 50 0 c30 0 50 -4 50 -11z m148 -1
c17 -17 15 -48 -4 -69 -14 -16 -14 -20 0 -48 19 -35 19 -41 6 -41 -6 0 -18 16
-27 35 -12 26 -23 35 -41 35 -20 0 -23 -4 -20 -32 2 -19 -2 -33 -9 -35 -10 -4
-13 17 -13 81 l0 86 48 0 c26 0 53 -5 60 -12z m2470 0 c-41 -9 -48 -14 -48
-34 0 -21 4 -24 41 -24 24 0 38 -4 34 -10 -3 -5 -22 -10 -41 -10 -31 0 -34 -2
-34 -30 0 -29 2 -30 46 -30 27 0 43 -4 39 -10 -3 -5 -28 -10 -56 -10 l-49 0 0
85 0 85 58 -1 57 -1 -47 -10z m108 -20 l16 -31 19 24 c10 13 19 27 19 32 0 4
7 7 15 7 12 0 9 -9 -11 -39 l-25 -39 25 -41 c28 -44 31 -51 17 -51 -5 0 -20
16 -32 37 -21 34 -23 35 -35 17 -31 -46 -43 -59 -49 -52 -4 3 6 25 21 47 l27
41 -27 40 c-20 30 -23 40 -11 40 8 0 22 -14 31 -32z m222 20 c7 -7 12 -24 12
-38 0 -35 -17 -50 -57 -50 -31 0 -33 -2 -33 -35 0 -19 -4 -35 -10 -35 -6 0
-10 35 -10 85 l0 85 43 0 c24 0 48 -5 55 -12z m72 -63 l0 -75 40 0 c22 0 40
-4 40 -10 0 -5 -22 -10 -50 -10 l-50 0 0 85 c0 50 4 85 10 85 6 0 10 -32 10
-75z m404 59 c20 -20 20 -29 -1 -64 -15 -27 -15 -30 0 -54 20 -29 21 -36 7
-36 -6 0 -18 16 -27 35 -12 25 -23 35 -40 35 -20 0 -23 -5 -23 -35 0 -19 -4
-35 -10 -35 -6 0 -10 35 -10 85 l0 85 44 0 c27 0 51 -6 60 -16z m150 5 c-4 -6
-20 -8 -40 -4 -33 6 -34 5 -34 -25 0 -28 2 -30 41 -30 24 0 38 -4 34 -10 -3
-5 -22 -10 -41 -10 -31 0 -34 -2 -34 -30 0 -28 2 -30 40 -30 22 0 40 -4 40
-10 0 -5 -22 -10 -50 -10 l-50 0 0 85 0 85 51 0 c34 0 48 -4 43 -11z m157 -11
c9 -17 8 -28 -6 -54 -16 -30 -16 -34 -1 -55 18 -27 20 -39 6 -39 -6 0 -18 16
-27 35 -12 25 -23 35 -40 35 -20 0 -23 -5 -23 -35 0 -19 -4 -35 -10 -35 -6 0
-10 35 -10 85 l0 85 50 0 c40 0 51 -4 61 -22z m2229 12 c0 -5 -18 -10 -40 -10
-36 0 -40 -2 -40 -25 0 -22 4 -25 35 -25 19 0 35 -4 35 -10 0 -5 -16 -10 -35
-10 -32 0 -35 -2 -35 -30 0 -28 2 -30 40 -30 22 0 40 -4 40 -10 0 -5 -22 -10
-50 -10 l-50 0 -1 38 c-1 20 -2 58 -3 85 l-1 47 53 0 c28 0 52 -4 52 -10z
m335 0 c-4 -6 -15 -8 -25 -5 -17 6 -19 -1 -22 -70 -4 -100 -22 -102 -26 -2 -3
76 -3 77 -27 71 -15 -4 -25 -2 -25 5 0 7 24 11 66 11 42 0 63 -4 59 -10z m63
-7 c-4 -47 1 -53 42 -53 39 0 40 1 40 35 0 25 4 35 15 35 13 0 15 -14 13 -82
-3 -85 -20 -115 -26 -45 -3 36 -4 37 -43 37 -35 0 -39 -3 -40 -25 -2 -44 -4
-48 -16 -52 -10 -4 -13 17 -13 81 0 69 3 86 15 86 8 0 14 -8 13 -17z m512 -68
c0 -50 -4 -85 -10 -85 -6 0 -10 35 -10 85 0 50 4 85 10 85 6 0 10 -35 10 -85z
m458 78 c-26 -4 -27 -6 -30 -79 -2 -41 -7 -74 -13 -74 -6 0 -9 21 -8 48 4 72
-3 92 -32 92 -14 0 -25 5 -25 10 0 6 28 9 68 9 37 -1 55 -4 40 -6z m2326 -12
c9 -10 19 -35 23 -54 5 -31 1 -40 -25 -67 -24 -24 -39 -30 -71 -30 l-41 0 0
85 0 85 48 0 c35 0 54 -5 66 -19z m166 8 c0 -6 -15 -9 -37 -7 -35 3 -38 1 -41
-24 -3 -26 -1 -28 32 -28 20 0 36 -4 36 -10 0 -5 -16 -10 -35 -10 -32 0 -35
-2 -35 -30 0 -28 2 -30 40 -30 22 0 40 -4 40 -10 0 -5 -22 -10 -50 -10 l-50 0
0 85 0 85 50 0 c29 0 50 -5 50 -11z m305 1 c-3 -5 -24 -10 -46 -10 -35 0 -39
-3 -39 -25 0 -22 4 -25 40 -25 22 0 40 -4 40 -10 0 -5 -18 -10 -40 -10 -38 0
-40 -2 -40 -30 0 -29 2 -30 46 -30 27 0 43 -4 39 -10 -3 -5 -28 -10 -56 -10
l-49 0 0 85 0 85 56 0 c34 0 53 -4 49 -10z m463 -2 c7 -7 12 -24 12 -40 0 -30
-23 -48 -64 -48 -21 0 -25 -5 -28 -32 -6 -65 -23 -32 -26 50 l-3 82 49 0 c26
0 53 -5 60 -12z m152 2 c0 -5 -18 -10 -40 -10 -36 0 -40 -2 -40 -25 0 -22 4
-25 35 -25 19 0 35 -4 35 -10 0 -5 -16 -10 -35 -10 -32 0 -35 -2 -35 -30 0
-28 2 -30 40 -30 22 0 40 -4 40 -10 0 -5 -22 -10 -50 -10 l-50 0 0 85 0 85 50
0 c28 0 50 -4 50 -10z m148 -2 c17 -17 15 -48 -4 -69 -14 -16 -14 -20 0 -48
19 -35 19 -41 6 -41 -6 0 -18 16 -27 35 -22 46 -58 46 -58 1 -1 -16 -6 -31
-13 -34 -9 -3 -12 19 -12 82 l0 86 48 0 c26 0 53 -5 60 -12z m-12738 -928
c107 -55 158 -183 114 -288 -25 -62 -104 -132 -149 -132 -12 0 -15 12 -15 59
0 57 1 59 30 64 39 8 64 56 56 106 -4 20 -6 55 -6 79 1 45 -3 48 -47 31 -36
-14 -145 -14 -171 0 -33 18 -40 13 -46 -31 -3 -24 -8 -61 -12 -84 -5 -34 -2
-45 21 -72 15 -18 35 -32 45 -32 23 0 31 -12 21 -29 -12 -18 -57 -3 -76 25
-15 24 -35 32 -35 15 0 -5 16 -26 35 -47 25 -26 40 -35 55 -31 17 4 20 0 20
-29 l0 -34 -37 15 c-49 19 -120 96 -133 143 -22 80 -7 149 46 210 74 87 187
111 284 62z m3840 -199 c0 -109 5 -101 -64 -102 -37 -1 -56 23 -56 71 0 48 28
75 70 67 28 -6 30 -4 30 22 0 24 7 41 17 41 2 0 3 -45 3 -99z m960 -1 c0 -60
-4 -100 -10 -100 -6 0 -10 40 -10 100 0 60 4 100 10 100 6 0 10 -40 10 -100z
m160 -7 c0 -79 -3 -104 -11 -96 -8 8 -18 8 -35 1 -18 -8 -29 -7 -49 6 -20 13
-25 24 -25 60 0 55 26 81 70 73 28 -6 30 -4 30 22 0 24 7 41 17 41 2 0 3 -48
3 -107z m1320 7 c0 -75 -3 -100 -12 -98 -7 1 -23 -2 -36 -6 -15 -5 -31 -2 -47
8 -20 13 -25 25 -25 61 0 26 6 50 16 59 18 19 55 21 72 4 9 -9 12 -3 12 30 0
23 5 42 10 42 6 0 10 -40 10 -100z m3370 -7 c0 -84 -2 -94 -16 -89 -9 4 -23 1
-31 -5 -10 -9 -20 -9 -38 -1 -35 16 -49 56 -35 98 12 36 38 49 76 40 22 -6 24
-3 24 29 0 22 4 34 10 30 6 -3 10 -49 10 -102z m878 -4 c-2 -52 -7 -94 -12
-94 -11 0 -21 169 -11 193 14 38 26 -10 23 -99z m162 4 c0 -84 -2 -94 -16 -89
-9 4 -23 1 -31 -5 -19 -17 -61 4 -73 36 -13 34 -2 83 22 96 11 6 32 7 49 4 28
-6 29 -5 29 30 0 22 4 34 10 30 6 -3 10 -49 10 -102z m2192 -21 c2 -52 0 -72
-9 -72 -10 0 -13 25 -13 93 0 52 3 97 8 101 8 9 10 -11 14 -122z m-12302 93
c39 -35 37 -124 -3 -149 -12 -8 -43 -16 -69 -19 l-48 -5 0 101 0 100 50 -5
c28 -3 59 -13 70 -23z m140 -70 c0 -57 -4 -95 -10 -95 -6 0 -10 32 -10 75 l0
75 -27 -5 -28 -6 30 25 c17 14 33 26 38 26 4 0 7 -43 7 -95z m260 17 c14 -40
27 -72 31 -72 3 0 16 30 29 68 23 67 35 90 44 81 10 -10 -60 -184 -74 -187
-11 -2 -23 20 -44 80 -15 46 -30 89 -33 97 -3 8 0 12 8 9 8 -2 25 -37 39 -76z
m2930 68 c0 -5 -4 -10 -10 -10 -5 0 -10 5 -10 10 0 6 5 10 10 10 6 0 10 -4 10
-10z m1410 0 c0 -5 -4 -10 -10 -10 -5 0 -10 5 -10 10 0 6 5 10 10 10 6 0 10
-4 10 -10z m1140 2 c0 -13 -12 -22 -22 -16 -10 6 -1 24 13 24 5 0 9 -4 9 -8z
m3258 -3 c-2 -6 -8 -10 -13 -10 -5 0 -11 4 -13 10 -2 6 4 11 13 11 9 0 15 -5
13 -11z m1332 3 c0 -13 -12 -22 -22 -16 -10 6 -1 24 13 24 5 0 9 -4 9 -8z
m570 -93 c0 -104 -19 -124 -21 -21 -1 37 -1 71 0 76 1 4 -10 5 -24 2 -14 -4
-25 -3 -25 1 0 11 53 41 63 36 4 -2 7 -44 7 -94z m170 81 c11 -11 20 -26 20
-34 0 -14 -62 -94 -84 -108 -13 -9 -4 -11 47 -8 21 1 37 -3 37 -9 0 -7 -24
-11 -60 -11 -33 0 -60 3 -60 6 0 3 23 31 50 61 52 57 58 78 28 97 -13 8 -23 8
-38 -2 -31 -19 -47 -13 -21 8 30 25 56 25 81 0z m165 10 c4 -6 -10 -10 -33
-10 -33 0 -41 -4 -46 -22 -9 -36 -8 -39 18 -32 19 4 32 -1 50 -20 15 -14 26
-32 26 -41 0 -22 -45 -65 -68 -65 -25 0 -69 35 -55 43 6 4 16 0 23 -8 16 -20
39 -19 62 2 38 34 7 78 -48 67 -37 -7 -41 0 -28 65 6 29 9 31 50 31 23 0 46
-4 49 -10z m865 0 c0 -5 -7 -10 -16 -10 -8 0 -12 5 -9 10 3 6 10 10 16 10 5 0
9 -4 9 -10z m-640 -20 c47 -47 48 -117 4 -147 -20 -12 -27 -13 -39 -3 -12 10
-19 10 -27 2 -16 -16 -34 -15 -52 4 -23 22 -20 59 7 90 20 22 28 25 56 19 31
-7 32 -8 26 -50 -8 -49 9 -70 32 -40 18 25 17 66 -3 93 -53 76 -164 30 -164
-67 0 -70 47 -107 119 -95 27 4 32 3 21 -5 -28 -20 -97 -13 -127 13 -25 22
-28 31 -28 86 0 57 2 64 33 91 41 37 110 41 142 9z m-11272 -53 c18 -37 9 -47
-44 -47 -31 0 -44 -4 -44 -14 0 -24 27 -38 62 -31 31 6 32 5 14 -10 -26 -20
-49 -19 -77 4 -29 23 -31 81 -4 111 27 30 76 24 93 -13z m244 21 c13 13 38 16
38 4 0 -4 -10 -12 -22 -17 -19 -8 -24 -20 -28 -65 -7 -74 -22 -66 -25 12 -2
68 3 88 16 67 6 -11 11 -11 21 -1z m2758 -58 c0 -40 -4 -70 -10 -70 -6 0 -10
30 -10 70 0 40 4 70 10 70 6 0 10 -30 10 -70z m142 53 c10 -9 18 -27 18 -40 0
-21 -4 -23 -50 -23 -53 0 -61 -8 -33 -35 11 -12 26 -15 47 -11 29 5 30 5 12
-9 -26 -20 -38 -19 -70 6 -30 24 -35 72 -10 107 18 26 60 29 86 5z m161 -17
c-7 -38 -25 -59 -54 -61 -42 -3 -32 -24 13 -27 36 -3 44 -7 46 -26 5 -35 -15
-52 -63 -52 -53 0 -75 21 -56 52 7 11 10 22 7 25 -3 3 -1 14 4 24 7 12 7 20 0
24 -15 9 -12 42 5 59 10 9 32 15 60 14 44 -1 44 -1 38 -32z m141 19 c36 -36
32 -94 -9 -121 -63 -41 -126 48 -79 114 18 26 65 30 88 7z m161 -35 c9 -27 20
-52 25 -55 4 -2 16 19 26 47 11 28 24 53 30 55 7 2 1 -27 -14 -67 -30 -84 -46
-87 -73 -15 -29 76 -31 85 -20 85 5 0 17 -22 26 -50z m215 24 c6 -14 10 -46
10 -70 0 -40 -2 -45 -19 -39 -11 3 -22 1 -26 -5 -15 -24 -75 5 -75 36 0 22 30
44 61 44 23 0 29 4 29 21 0 19 -4 21 -40 16 -35 -4 -39 -3 -29 9 6 8 27 14 45
14 28 0 36 -5 44 -26z m374 10 c39 -38 28 -104 -19 -126 -57 -26 -108 60 -70
118 18 28 65 33 89 8z m81 -39 c11 -30 22 -55 25 -55 4 0 14 25 24 55 9 30 21
55 27 55 13 0 12 -7 -17 -83 -14 -37 -31 -66 -37 -64 -10 3 -55 111 -56 135
-2 30 17 7 34 -43z m135 -15 c0 -40 -4 -70 -10 -70 -6 0 -10 30 -10 70 0 40 4
70 10 70 6 0 10 -30 10 -70z m85 60 c8 14 48 13 63 -2 14 -14 16 -128 2 -128
-5 0 -10 26 -12 58 -3 51 -5 57 -27 60 -31 5 -41 -12 -41 -70 0 -26 -4 -50
-10 -53 -6 -4 -10 22 -10 71 0 65 2 75 14 65 10 -8 16 -9 21 -1z m225 -10 c28
-28 26 -75 -5 -105 -13 -14 -31 -25 -40 -25 -27 0 -65 46 -65 80 0 37 31 70
65 70 14 0 34 -9 45 -20z m137 4 c2 -6 -10 -8 -32 -6 -48 6 -48 -22 0 -38 43
-14 59 -55 30 -77 -24 -17 -46 -17 -71 1 -24 18 -13 31 14 15 11 -7 27 -9 36
-6 28 11 17 33 -24 50 -42 16 -52 41 -28 65 15 15 70 12 75 -4z m153 4 c0 -9
3 -9 12 0 15 15 48 16 48 2 0 -5 -9 -10 -20 -10 -26 0 -40 -29 -40 -85 0 -28
-4 -44 -10 -40 -5 3 -10 37 -10 76 0 39 4 69 10 69 6 0 10 -5 10 -12z m184 -4
c37 -37 27 -105 -19 -126 -57 -26 -108 60 -70 118 18 28 65 33 89 8z m246 6
c0 -6 8 -5 20 2 15 10 22 10 32 0 9 -9 8 -12 -8 -12 -32 0 -44 -20 -44 -72 0
-26 -4 -48 -10 -48 -6 0 -10 30 -10 70 0 40 4 70 10 70 6 0 10 -5 10 -10z
m110 -66 c0 -36 -4 -64 -10 -64 -6 0 -10 30 -10 71 0 44 4 68 10 64 6 -3 10
-35 10 -71z m152 64 c-7 -7 -12 -24 -12 -39 0 -27 -27 -46 -57 -41 -7 2 -13
-4 -13 -12 0 -10 12 -16 36 -18 48 -4 65 -29 40 -57 -19 -21 -67 -28 -100 -15
-17 7 -22 39 -7 49 5 3 8 31 5 62 -5 71 5 83 69 83 40 0 48 -3 39 -12z m58
-42 c0 -64 17 -85 55 -68 22 10 25 18 25 67 0 30 5 55 10 55 6 0 10 -30 10
-71 0 -60 -2 -70 -15 -65 -9 3 -24 0 -34 -6 -15 -9 -24 -8 -45 5 -23 16 -26
24 -26 77 0 33 4 60 10 60 6 0 10 -24 10 -54z m248 21 c18 -37 9 -47 -44 -47
-47 0 -58 -16 -28 -41 12 -10 22 -10 45 -2 33 13 40 -1 9 -17 -25 -14 -68 -3
-80 20 -15 29 -12 82 7 102 25 28 74 20 91 -15z m132 22 c0 -6 -16 -33 -35
-59 -19 -26 -35 -50 -35 -53 0 -3 19 -8 43 -10 36 -3 34 -4 -15 -5 -32 -1 -58
1 -58 4 0 4 16 28 35 54 19 26 35 50 35 54 0 3 -13 6 -30 6 -16 0 -30 5 -30
10 0 6 20 10 45 10 26 0 45 -5 45 -11z m2670 -65 c0 -35 -4 -64 -9 -64 -9 0
-20 128 -12 136 13 12 21 -15 21 -72z m146 51 c25 -38 12 -55 -41 -55 -48 0
-59 -16 -29 -41 12 -10 22 -10 45 -2 33 13 40 -1 9 -17 -25 -14 -68 -3 -80 20
-15 29 -12 81 7 102 24 27 69 23 89 -7z m164 14 c0 -5 -5 -9 -11 -9 -6 0 -8
-8 -4 -19 8 -26 -30 -65 -56 -58 -12 3 -19 0 -19 -9 0 -9 11 -14 34 -14 62 0
74 -58 16 -79 -39 -13 -90 3 -90 29 0 11 4 21 9 25 5 3 8 31 5 62 -2 32 1 62
7 69 12 15 109 17 109 3z m132 -6 c18 -16 25 -77 10 -99 -27 -42 -95 -35 -112
11 -14 37 -13 49 11 79 24 30 63 34 91 9z m82 -41 c10 -28 22 -50 26 -47 4 2
13 25 20 50 12 42 26 63 36 53 5 -5 -43 -129 -54 -140 -12 -12 -25 7 -50 75
-26 69 -26 70 -9 65 6 -3 20 -28 31 -56z m206 39 c15 -29 13 -122 -2 -119 -7
1 -23 -2 -36 -6 -26 -9 -72 16 -72 38 0 19 25 38 63 45 47 10 43 36 -5 35 -37
-1 -51 9 -25 19 29 12 67 6 77 -12z m382 2 c20 -18 24 -73 8 -103 -14 -26 -57
-34 -86 -15 -19 12 -24 24 -24 57 0 25 7 49 17 60 20 22 61 23 85 1z m83 -46
l21 -57 20 57 c12 31 26 59 33 61 16 5 9 -18 -26 -97 -14 -34 -27 -51 -33 -45
-17 17 -61 146 -49 142 7 -2 22 -30 34 -61z m135 -7 c0 -40 -4 -70 -10 -70 -6
0 -10 30 -10 70 0 40 4 70 10 70 6 0 10 -30 10 -70z m147 59 c15 -13 19 -129
3 -129 -5 0 -10 26 -12 58 -3 54 -5 57 -30 60 -34 4 -51 -26 -46 -79 2 -27 0
-39 -9 -39 -9 0 -13 19 -13 68 l0 68 47 2 c25 1 52 -3 60 -9z m156 -7 c30 -33
26 -95 -8 -118 -26 -17 -55 -13 -80 12 -20 20 -19 83 2 106 21 23 65 23 86 0z
m144 1 c3 -8 -6 -10 -31 -6 -50 8 -49 -19 2 -44 46 -22 52 -46 17 -69 -21 -13
-31 -15 -50 -6 -14 7 -25 17 -25 23 0 8 4 8 14 -1 20 -15 61 -9 61 10 0 8 -15
22 -34 31 -44 21 -56 43 -35 64 19 18 75 17 81 -2z m865 5 c-7 -7 -12 -22 -12
-34 0 -25 -16 -41 -48 -46 -35 -5 -27 -23 12 -26 65 -6 74 -64 13 -80 -61 -16
-99 5 -81 46 12 27 13 76 2 89 -7 9 -5 20 6 38 14 21 24 25 68 25 40 0 49 -3
40 -12z m135 0 c10 -8 17 -8 25 0 15 15 51 15 66 0 14 -14 16 -128 2 -128 -5
0 -10 26 -12 57 -2 48 -6 58 -22 61 -28 6 -46 -25 -46 -75 0 -24 -4 -43 -10
-43 -5 0 -10 25 -10 55 0 42 -4 57 -16 62 -31 12 -49 -11 -52 -66 -4 -75 -22
-62 -22 17 l0 68 42 1 c23 1 48 -3 55 -9z m241 0 c7 -7 12 -40 12 -77 0 -49
-3 -62 -12 -53 -7 7 -17 8 -29 2 -28 -15 -69 5 -69 33 0 32 18 47 58 47 27 0
33 4 30 18 -3 13 -13 17 -41 16 -20 -1 -37 2 -37 7 0 19 70 25 88 7z m82 -58
c0 -40 -4 -70 -10 -70 -6 0 -10 30 -10 70 0 40 4 70 10 70 6 0 10 -30 10 -70z
m268 58 c17 -17 15 -33 -2 -18 -8 6 -25 10 -38 8 -19 -2 -24 -10 -26 -44 -4
-50 18 -75 49 -56 23 15 29 15 29 2 0 -6 -11 -15 -25 -22 -50 -23 -96 41 -73
101 5 14 15 29 21 33 18 12 52 9 65 -4z m152 -8 c28 -28 26 -75 -5 -105 -29
-30 -45 -31 -79 -4 -50 39 -23 129 39 129 14 0 34 -9 45 -20z m156 9 c8 -7 14
-7 19 1 9 14 58 13 73 -2 14 -14 16 -128 2 -128 -5 0 -10 26 -12 58 -3 56 -3
57 -33 57 -30 0 -30 -1 -33 -57 -2 -32 -7 -58 -12 -58 -5 0 -10 26 -12 58 -3
51 -5 57 -27 60 -31 5 -41 -12 -41 -70 0 -27 -4 -48 -10 -48 -6 0 -10 29 -10
68 l0 68 42 1 c23 1 47 -2 54 -8z m-8931 -59 c-3 -5 -19 -10 -36 -10 -16 0
-29 5 -29 10 0 6 16 10 36 10 21 0 33 -4 29 -10z m1405 0 c0 -5 -13 -10 -29
-10 -17 0 -33 5 -36 10 -4 6 8 10 29 10 20 0 36 -4 36 -10z m7085 -70 c-5 -8
-11 -8 -17 -2 -6 6 -7 16 -3 22 5 8 11 8 17 2 6 -6 7 -16 3 -22z"/>
<path d="M2823 6405 c-19 -13 -23 -26 -23 -70 0 -34 5 -59 15 -69 42 -41 98
-26 116 33 10 34 9 44 -7 78 -15 30 -25 39 -49 41 -16 1 -40 -4 -52 -13z"/>
<path d="M5141 5506 c-50 -28 -50 -31 -51 -498 0 -254 4 -447 10 -462 13 -36
57 -61 104 -60 31 1 46 8 68 33 l28 31 0 451 c0 290 -4 457 -10 470 -23 43
-101 61 -149 35z"/>
<path d="M1935 5295 c-4 -112 -4 -337 0 -500 l8 -295 59 0 c75 0 122 21 143
65 14 30 15 85 13 456 l-3 421 -33 29 c-29 26 -39 29 -106 29 l-73 0 -8 -205z"/>
<path d="M2101 3834 c-46 -59 -14 -164 50 -164 46 0 79 39 79 93 0 59 -29 97
-75 97 -24 0 -39 -7 -54 -26z"/>
<path d="M3626 3793 c-22 -63 -22 -63 24 -63 22 0 40 3 40 8 0 16 -34 102 -41
102 -4 0 -14 -21 -23 -47z"/>
<path d="M3970 3815 l0 -45 38 0 c43 0 62 14 62 45 0 31 -19 45 -62 45 l-38 0
0 -45z"/>
<path d="M7350 3815 l0 -45 39 0 c40 0 71 20 71 44 0 23 -36 46 -73 46 l-37 0
0 -45z"/>
<path d="M10070 3765 l0 -95 36 0 c81 0 127 108 69 165 -18 18 -35 25 -65 25
l-40 0 0 -95z"/>
<path d="M10030 2870 c-38 -38 -15 -120 34 -120 54 0 79 93 34 124 -30 21 -44
20 -68 -4z"/>
<path d="M3630 2858 c0 -7 -3 -23 -6 -35 -5 -20 -2 -23 21 -23 22 0 26 3 20
18 -4 9 -10 25 -12 35 -6 20 -23 23 -23 5z"/>
<path d="M6423 2835 c-11 -34 -10 -35 14 -35 22 0 24 3 18 28 -10 43 -21 45
-32 7z"/>
<path d="M10390 2815 c0 -61 1 -65 23 -65 40 0 67 27 67 69 0 46 -14 61 -57
61 l-33 0 0 -65z"/>
<path d="M13537 2883 c-4 -3 -7 -19 -7 -35 0 -21 5 -28 19 -28 47 0 67 30 39
58 -13 13 -41 16 -51 5z"/>
<path d="M14131 2847 c-16 -41 -14 -47 15 -47 22 0 24 3 18 23 -14 48 -22 54
-33 24z"/>
<path d="M7003 2535 c-31 -21 -32 -84 -3 -110 51 -46 116 36 73 93 -25 33 -41
37 -70 17z"/>
<path d="M10797 2513 c-2 -10 -8 -26 -12 -35 -6 -15 -2 -18 24 -18 30 0 30 1
19 28 -17 39 -25 46 -31 25z"/>
<path d="M14160 2530 c-24 -24 -26 -67 -4 -98 32 -46 94 -15 94 46 0 34 -29
72 -55 72 -8 0 -24 -9 -35 -20z"/>
<path d="M2640 2475 c0 -65 0 -65 28 -65 36 0 65 31 65 70 0 40 -19 60 -59 60
l-34 0 0 -65z"/>
<path d="M3422 2534 c-27 -18 -31 -84 -6 -108 36 -37 94 -4 94 54 0 52 -49 82
-88 54z"/>
<path d="M3590 2510 c0 -28 3 -30 34 -30 26 0 36 5 41 20 9 29 -2 40 -41 40
-31 0 -34 -2 -34 -30z"/>
<path d="M3892 2513 c2 -22 9 -29 29 -31 30 -3 52 18 43 42 -4 10 -18 16 -41
16 -32 0 -34 -2 -31 -27z"/>
<path d="M6700 2510 c0 -29 2 -31 33 -28 27 2 32 7 32 28 0 21 -5 26 -32 28
-31 3 -33 1 -33 -28z"/>
<path d="M7170 2509 c0 -28 2 -30 33 -27 27 2 33 8 35 31 3 25 1 27 -32 27
-33 0 -36 -2 -36 -31z"/>
<path d="M7470 2509 c0 -28 2 -30 33 -27 27 2 33 8 35 31 3 25 1 27 -32 27
-33 0 -36 -2 -36 -31z"/>
<path d="M13395 2542 c-3 -3 -5 -34 -5 -69 0 -63 0 -63 28 -63 16 0 36 8 45
18 20 22 22 85 5 99 -15 12 -65 22 -73 15z"/>
<path d="M14353 2543 c-7 -3 -13 -18 -13 -34 0 -28 2 -30 33 -27 26 2 32 7 32
27 0 24 -28 42 -52 34z"/>
<path d="M14634 2513 c2 -21 9 -29 28 -31 28 -3 53 20 44 43 -3 9 -18 15 -40
15 -32 0 -34 -2 -32 -27z"/>
<path d="M5731 1426 c-17 -20 -10 -77 12 -90 30 -19 52 4 52 55 0 40 -2 44
-26 47 -14 2 -31 -4 -38 -12z"/>
<path d="M6851 1426 c-17 -20 -10 -77 12 -90 25 -16 51 4 55 43 4 36 -12 61
-38 61 -10 0 -23 -6 -29 -14z"/>
<path d="M8172 1428 c-20 -20 -15 -76 8 -88 32 -17 60 4 60 43 0 36 -15 57
-40 57 -9 0 -21 -5 -28 -12z"/>
<path d="M11534 1426 c-10 -26 1 -79 18 -90 37 -23 79 59 46 92 -16 16 -57 15
-64 -2z"/>
<path d="M12577 1433 c-13 -12 -7 -81 8 -93 37 -30 79 26 56 76 -10 23 -48 33
-64 17z"/>
<path d="M2460 1415 l0 -75 39 0 c45 0 60 14 68 63 4 29 1 40 -20 61 -17 17
-37 26 -57 26 l-30 0 0 -75z"/>
<path d="M14060 1411 c-15 -28 -12 -61 5 -67 24 -10 45 15 45 52 0 27 -4 34
-20 34 -10 0 -24 -9 -30 -19z"/>
<path d="M2807 1434 c-18 -19 -5 -34 29 -34 28 0 35 3 32 18 -3 17 -48 29 -61
16z"/>
<path d="M5962 1428 c-21 -21 -13 -28 29 -28 33 0 40 3 35 16 -3 9 -6 18 -6
20 0 9 -47 3 -58 -8z"/>
<path d="M6104 1425 c-10 -24 19 -49 45 -40 16 5 21 13 19 28 -4 28 -55 37
-64 12z"/>
<path d="M6099 1304 c-10 -13 -10 -17 2 -25 32 -20 79 -4 79 28 0 19 -65 17
-81 -3z"/>
<path d="M6262 1428 c-17 -17 -15 -64 4 -83 22 -21 45 -16 62 15 28 52 -26
108 -66 68z"/>
<path d="M6648 1383 c-23 -6 -30 -29 -12 -44 20 -16 48 -1 52 30 3 21 -4 24
-40 14z"/>
<path d="M7012 1428 c-27 -27 -4 -98 32 -98 18 0 46 33 46 54 0 47 -48 74 -78
44z"/>
<path d="M7529 1416 c-23 -49 11 -97 55 -80 42 16 27 104 -19 104 -17 0 -29
-8 -36 -24z"/>
<path d="M8012 1428 c-17 -17 -15 -64 4 -83 22 -22 45 -16 63 17 29 51 -27
106 -67 66z"/>
<path d="M8504 1425 c-10 -25 4 -47 28 -43 17 2 24 11 26 31 3 23 0 27 -23 27
-14 0 -28 -7 -31 -15z"/>
<path d="M8494 1305 c-8 -21 4 -35 30 -35 29 0 61 24 52 38 -10 17 -75 15 -82
-3z"/>
<path d="M8816 1424 c-9 -24 -9 -24 34 -24 41 0 49 7 28 28 -17 17 -55 15 -62
-4z"/>
<path d="M11766 1425 c-9 -25 -9 -25 30 -25 28 0 35 3 32 18 -4 23 -53 29 -62
7z"/>
<path d="M11914 1425 c-10 -25 4 -47 28 -43 17 2 24 11 26 31 3 23 0 27 -23
27 -14 0 -28 -7 -31 -15z"/>
<path d="M11904 1305 c-9 -22 4 -35 35 -35 31 0 57 23 46 40 -10 16 -75 12
-81 -5z"/>
<path d="M12064 1416 c-9 -35 -1 -68 19 -80 36 -23 67 23 53 80 -5 19 -13 24
-36 24 -23 0 -31 -5 -36 -24z"/>
<path d="M12380 1381 c-34 -9 -35 -46 -1 -46 27 0 51 29 36 43 -6 5 -21 6 -35
3z"/>
<path d="M12734 1416 c-14 -57 17 -103 54 -80 21 13 28 70 11 90 -19 23 -58
18 -65 -10z"/>
<path d="M13261 1426 c-17 -20 -10 -77 12 -90 30 -19 52 4 52 55 0 40 -2 44
-26 47 -14 2 -31 -4 -38 -12z"/>
<path d="M14254 1425 c-10 -25 4 -47 28 -43 17 2 24 11 26 31 3 23 0 27 -23
27 -14 0 -28 -7 -31 -15z"/>
<path d="M14244 1305 c-8 -21 4 -35 30 -35 29 0 61 24 52 38 -10 17 -75 15
-82 -3z"/>
<path d="M14644 1365 c-8 -19 3 -35 25 -35 20 0 41 19 41 37 0 18 -59 17 -66
-2z"/>
<path d="M15142 1428 c-16 -16 -15 -60 1 -83 20 -26 65 -13 73 21 14 55 -38
98 -74 62z"/>
</g>
</svg>
